<svg width="31" height="24" viewBox="0 0 31 24" fill="none" xmlns="http://www.w3.org/2000/svg">
<path d="M16.1128 11.8818C16.1089 15.6152 15.3912 18.4838 13.9598 20.4876C12.5497 22.4701 10.5967 23.4601 8.10068 23.4575C5.60468 23.4549 3.64305 22.4608 2.21579 20.4753C0.809891 18.4685 0.10889 15.5985 0.112792 11.8651C0.114732 10.0091 0.297783 8.36665 0.661943 6.93769C1.04744 5.50876 1.5927 4.304 2.29772 3.3234C3.00275 2.34281 3.84619 1.59702 4.82806 1.08604C5.80993 0.575071 6.90886 0.320219 8.12486 0.32149C10.6209 0.324099 12.5718 1.32881 13.9777 3.33561C15.405 5.3211 16.1167 8.16985 16.1128 11.8818ZM11.2488 11.8768C11.2499 10.7674 11.1977 9.76471 11.0919 8.8686C10.9862 7.95115 10.8164 7.16164 10.5824 6.50006C10.3484 5.83848 10.029 5.32615 9.62401 4.96306C9.21906 4.59997 8.71791 4.41811 8.12058 4.41749C7.52325 4.41686 7.02173 4.59767 6.61601 4.95992C6.23164 5.32218 5.9111 5.83385 5.65441 6.49491C5.41905 7.156 5.24756 7.94515 5.13993 8.86238C5.03233 9.75826 4.97795 10.7609 4.97679 11.8702C4.97563 12.9795 5.0279 13.9929 5.13361 14.9104C5.23932 15.8278 5.40916 16.6173 5.64314 17.2789C5.89845 17.9405 6.21791 18.4528 6.60153 18.8159C7.00649 19.179 7.50763 19.3609 8.10496 19.3615C8.70229 19.3621 9.20382 19.1813 9.60953 18.8191C10.0152 18.4568 10.3358 17.9451 10.5711 17.2841C10.8065 16.623 10.978 15.8338 11.0856 14.9166C11.1932 13.9994 11.2476 12.9861 11.2488 11.8768ZM19.459 5.45334C20.0779 5.19799 20.7182 4.91066 21.3799 4.59135C22.0629 4.25073 22.7246 3.88875 23.365 3.50542C24.0055 3.10076 24.6139 2.68539 25.1903 2.25933C25.7881 1.81195 26.322 1.34318 26.7918 0.853002L30.1198 0.856481L30.0966 23.0325L25.3286 23.0275L25.3453 7.05949C24.7049 7.48549 23.9898 7.87941 23.2001 8.24125C22.4104 8.58176 21.6421 8.87962 20.8952 9.13484L19.459 5.45334Z" fill="url(#paint0_linear_172_418)"/>
<defs>
<linearGradient id="paint0_linear_172_418" x1="17.5508" y1="-12.9807" x2="-10.0457" y2="-4.4704" gradientUnits="userSpaceOnUse">
<stop stop-color="#DBB086"/>
<stop offset="0.484375" stop-color="#A87E53"/>
<stop offset="1" stop-color="#AB7947"/>
</linearGradient>
</defs>
</svg>
