<svg width="34" height="24" viewBox="0 0 34 24" fill="none" xmlns="http://www.w3.org/2000/svg">
<path d="M16.1128 11.8818C16.1089 15.6152 15.3912 18.4838 13.9598 20.4876C12.5497 22.4701 10.5967 23.4601 8.10068 23.4575C5.60468 23.4549 3.64305 22.4608 2.21579 20.4753C0.809891 18.4685 0.10889 15.5985 0.112792 11.8651C0.114732 10.0091 0.297783 8.36665 0.661943 6.93769C1.04744 5.50876 1.5927 4.304 2.29772 3.3234C3.00275 2.34281 3.84619 1.59702 4.82806 1.08604C5.80993 0.575071 6.90886 0.320219 8.12486 0.32149C10.6209 0.324099 12.5718 1.32881 13.9777 3.33561C15.405 5.3211 16.1167 8.16985 16.1128 11.8818ZM11.2488 11.8768C11.2499 10.7674 11.1977 9.76471 11.0919 8.8686C10.9862 7.95115 10.8164 7.16164 10.5824 6.50006C10.3484 5.83848 10.029 5.32615 9.62401 4.96306C9.21906 4.59997 8.71791 4.41811 8.12058 4.41749C7.52325 4.41686 7.02173 4.59767 6.61601 4.95992C6.23164 5.32218 5.9111 5.83385 5.65441 6.49491C5.41905 7.156 5.24756 7.94515 5.13993 8.86238C5.03233 9.75826 4.97795 10.7609 4.97679 11.8702C4.97563 12.9795 5.0279 13.9929 5.13361 14.9104C5.23932 15.8278 5.40916 16.6173 5.64314 17.2789C5.89845 17.9405 6.21791 18.4528 6.60153 18.8159C7.00649 19.179 7.50763 19.3609 8.10496 19.3615C8.70229 19.3621 9.20382 19.1813 9.60953 18.8191C10.0152 18.4568 10.3358 17.9451 10.5711 17.2841C10.8065 16.623 10.978 15.8338 11.0856 14.9166C11.1932 13.9994 11.2476 12.9861 11.2488 11.8768ZM33.0897 6.68359C33.0889 7.49425 32.9281 8.27275 32.6073 9.01909C32.2865 9.76542 31.8697 10.4903 31.357 11.1938C30.8443 11.8759 30.2676 12.5366 29.6269 13.176C28.9863 13.8153 28.3563 14.4226 27.737 14.998C27.4167 15.2963 27.0644 15.6373 26.68 16.0209C26.3169 16.3832 25.9645 16.7561 25.6228 17.1398C25.2811 17.5234 24.9713 17.8858 24.6937 18.2268C24.4373 18.5466 24.277 18.8131 24.2128 19.0263L33.7488 19.0363L33.7446 23.0363L18.9606 23.0208C18.9182 22.7861 18.8972 22.4874 18.8976 22.1248C18.898 21.7621 18.8982 21.5061 18.8984 21.3568C18.8995 20.3328 19.0604 19.3943 19.3813 18.5413C19.7236 17.6883 20.1617 16.8994 20.6958 16.1746C21.2299 15.4285 21.828 14.7358 22.49 14.0965C23.1733 13.4572 23.846 12.8179 24.508 12.1786C25.0205 11.6885 25.501 11.2303 25.9494 10.8041C26.3979 10.3566 26.793 9.93034 27.1348 9.52537C27.4765 9.09906 27.7436 8.68333 27.9361 8.2782C28.1285 7.85174 28.2249 7.42517 28.2254 6.9985C28.2264 6.05984 27.9604 5.39823 27.4275 5.01367C26.8945 4.62911 26.2334 4.43642 25.4441 4.4356C24.8681 4.43499 24.324 4.53042 23.8118 4.72189C23.3209 4.89204 22.862 5.1049 22.4351 5.36045C22.0295 5.59469 21.6773 5.83966 21.3783 6.09535C21.0794 6.3297 20.8552 6.52147 20.7057 6.67064L18.3412 3.34017C19.2808 2.46649 20.3695 1.75296 21.6075 1.19958C22.8667 0.624899 24.211 0.338304 25.6404 0.339798C26.9417 0.341158 28.0615 0.491662 28.9999 0.791309C29.9382 1.09096 30.7058 1.51843 31.3025 2.07372C31.9207 2.6077 32.368 3.2695 32.6445 4.05912C32.9423 4.82743 33.0908 5.70225 33.0897 6.68359Z" fill="url(#paint0_linear_172_422)"/>
<defs>
<linearGradient id="paint0_linear_172_422" x1="17.5508" y1="-12.9807" x2="-10.0457" y2="-4.4704" gradientUnits="userSpaceOnUse">
<stop stop-color="#DBB086"/>
<stop offset="0.484375" stop-color="#A87E53"/>
<stop offset="1" stop-color="#AB7947"/>
</linearGradient>
</defs>
</svg>
