<svg width="34" height="24" viewBox="0 0 34 24" fill="none" xmlns="http://www.w3.org/2000/svg">
<path d="M16.1128 11.8818C16.1089 15.6152 15.3912 18.4838 13.9598 20.4876C12.5497 22.4701 10.5967 23.4601 8.10068 23.4575C5.60468 23.4549 3.64305 22.4608 2.21579 20.4753C0.809891 18.4685 0.10889 15.5985 0.112792 11.8651C0.114732 10.0091 0.297783 8.36665 0.661943 6.93769C1.04744 5.50876 1.5927 4.304 2.29772 3.3234C3.00275 2.34281 3.84619 1.59702 4.82806 1.08604C5.80993 0.575071 6.90886 0.320219 8.12486 0.32149C10.6209 0.324099 12.5718 1.32881 13.9777 3.33561C15.405 5.3211 16.1167 8.16985 16.1128 11.8818ZM11.2488 11.8768C11.2499 10.7674 11.1977 9.76471 11.0919 8.8686C10.9862 7.95115 10.8164 7.16164 10.5824 6.50006C10.3484 5.83848 10.029 5.32615 9.62401 4.96306C9.21906 4.59997 8.71791 4.41811 8.12058 4.41749C7.52325 4.41686 7.02173 4.59767 6.61601 4.95992C6.23164 5.32218 5.9111 5.83385 5.65441 6.49491C5.41905 7.156 5.24756 7.94515 5.13993 8.86238C5.03233 9.75826 4.97795 10.7609 4.97679 11.8702C4.97563 12.9795 5.0279 13.9929 5.13361 14.9104C5.23932 15.8278 5.40916 16.6173 5.64314 17.2789C5.89845 17.9405 6.21791 18.4528 6.60153 18.8159C7.00649 19.179 7.50763 19.3609 8.10496 19.3615C8.70229 19.3621 9.20382 19.1813 9.60953 18.8191C10.0152 18.4568 10.3358 17.9451 10.5711 17.2841C10.8065 16.623 10.978 15.8338 11.0856 14.9166C11.1932 13.9994 11.2476 12.9861 11.2488 11.8768ZM24.4961 23.5066C23.9201 23.506 23.3122 23.4627 22.6723 23.3767C22.0323 23.312 21.4138 23.2154 20.8166 23.0868C20.2194 22.9581 19.6755 22.8189 19.185 22.6691C18.6945 22.5192 18.3106 22.3802 18.0334 22.2519L18.9656 18.2848C19.52 18.5201 20.2237 18.7768 21.0768 19.055C21.9512 19.312 23.0284 19.4411 24.3084 19.4424C25.7804 19.444 26.858 19.1677 27.5413 18.6138C28.2245 18.0598 28.5666 17.3135 28.5676 16.3749C28.5682 15.7989 28.4407 15.3187 28.1851 14.9345C27.9509 14.5289 27.6205 14.2085 27.1941 13.9734C26.7677 13.717 26.2559 13.5458 25.6586 13.4598C25.0828 13.3526 24.4641 13.2986 23.8028 13.2979L21.9468 13.2959L21.9508 9.45595L24.0628 9.45815C24.5322 9.45865 24.9802 9.41645 25.407 9.33156C25.855 9.24669 26.2499 9.10844 26.5914 8.9168C26.9329 8.70382 27.1999 8.42677 27.3923 8.08563C27.606 7.72319 27.7131 7.2753 27.7137 6.74197C27.7141 6.33664 27.6291 5.98455 27.4588 5.6857C27.2884 5.38686 27.0647 5.14129 26.7875 4.949C26.5317 4.75673 26.2225 4.61774 25.86 4.53203C25.5188 4.42501 25.1668 4.37131 24.8041 4.37093C23.8868 4.36997 23.0333 4.50774 22.2437 4.78425C21.4754 5.06078 20.7711 5.40138 20.1306 5.80604L18.4383 2.31627C18.7798 2.1033 19.1747 1.87971 19.623 1.64551C20.0926 1.41133 20.6048 1.19854 21.1597 1.00712C21.7145 0.815695 22.3014 0.656309 22.9202 0.528956C23.5603 0.401624 24.2324 0.338326 24.9364 0.339062C26.2377 0.340422 27.3575 0.501593 28.2959 0.822575C29.2555 1.12224 30.0444 1.5604 30.6625 2.13705C31.2806 2.69236 31.7385 3.35417 32.0364 4.12249C32.3343 4.86946 32.4828 5.69095 32.4818 6.58695C32.4809 7.46162 32.2347 8.3147 31.7432 9.14618C31.2516 9.95634 30.5897 10.5743 29.7572 11.0001C30.9087 11.4706 31.7933 12.1756 32.411 13.1149C33.05 14.0329 33.3689 15.1426 33.3675 16.4439C33.3665 17.4679 33.1948 18.417 32.8525 19.2913C32.5103 20.1443 31.9762 20.8904 31.2502 21.5297C30.5242 22.1476 29.5957 22.6373 28.4647 22.9988C27.355 23.3389 26.0321 23.5082 24.4961 23.5066Z" fill="url(#paint0_linear_172_426)"/>
<defs>
<linearGradient id="paint0_linear_172_426" x1="17.5508" y1="-12.9807" x2="-10.0457" y2="-4.4704" gradientUnits="userSpaceOnUse">
<stop stop-color="#DBB086"/>
<stop offset="0.484375" stop-color="#A87E53"/>
<stop offset="1" stop-color="#AB7947"/>
</linearGradient>
</defs>
</svg>
