<svg width="328" height="305" viewBox="0 0 328 305" fill="none" xmlns="http://www.w3.org/2000/svg">
<g clip-path="url(#clip0_172_428)">
<path d="M150.509 247.525C150.475 247.47 151.361 246.872 153.055 245.798C154.76 244.724 157.285 243.163 160.529 241.17C167.029 237.195 176.429 231.526 187.978 224.605L188.266 224.439L188.576 224.572C197.788 228.436 208.406 232.876 219.955 237.726L220.332 237.881L220.431 238.28C223.642 251.545 227.163 266.105 230.85 281.33L230.994 281.961L230.441 282.282C217.087 290.154 204.321 297.695 192.628 304.582L192.274 304.792L191.897 304.637C180.349 299.688 169.797 295.159 160.596 291.217L160.286 291.084L160.208 290.763C157.108 277.51 154.605 266.725 152.922 259.24C152.081 255.498 151.439 252.585 151.029 250.592C150.619 248.61 150.431 247.559 150.497 247.536C150.564 247.525 150.874 248.544 151.405 250.504C151.937 252.464 152.701 255.354 153.653 259.063C155.558 266.492 158.248 277.244 161.503 290.453C161.382 290.309 161.26 290.165 161.116 289.999C170.339 293.864 180.936 298.304 192.529 303.153C192.285 303.165 192.052 303.187 191.798 303.198C203.468 296.277 216.213 288.704 229.555 280.798C229.422 281.108 229.289 281.418 229.156 281.739C225.513 266.504 222.026 251.932 218.859 238.656C219.025 238.844 219.18 239.044 219.324 239.21C207.82 234.272 197.234 229.732 188.055 225.801C188.266 225.79 188.476 225.768 188.653 225.757C177.027 232.533 167.527 238.036 160.906 241.823C157.595 243.716 155.015 245.167 153.243 246.141C151.483 247.116 150.531 247.603 150.497 247.536L150.509 247.525Z" fill="#B1B1B1"/>
<path d="M192.23 303.873C191.997 303.929 190.757 299.721 188.941 292.867C187.125 286.013 184.734 276.513 182.198 266.005C181.788 264.289 181.379 262.606 181.002 261.012C181.168 261.211 181.334 261.41 181.5 261.598C172.654 257.823 164.87 254.401 159.311 251.877C153.753 249.352 150.42 247.725 150.509 247.525C150.597 247.326 154.074 248.577 159.754 250.825C165.434 253.062 173.307 256.295 182.165 260.015L182.563 260.181L182.663 260.602C183.051 262.207 183.46 263.89 183.87 265.596C186.406 276.103 188.609 285.648 190.115 292.579C191.621 299.511 192.44 303.818 192.208 303.873H192.23Z" fill="#B1B1B1"/>
<path d="M181.843 260.801C181.6 260.392 189.871 255.055 200.312 248.876C210.753 242.698 219.412 238.036 219.656 238.446C219.899 238.856 211.628 244.193 201.187 250.371C190.745 256.538 182.087 261.211 181.843 260.801Z" fill="#B1B1B1"/>
<g opacity="0.87">
<path d="M169.397 13.1321L180.547 56.658L142.082 79.6887L130.932 36.1628L169.397 13.1321Z" fill="#AB7947"/>
<path d="M142.082 79.6889L109.817 66.5569L98.667 23.031L130.932 36.163L142.082 79.6889Z" fill="#AB7947"/>
<path d="M130.932 36.1627L98.667 23.0308L137.133 0L169.398 13.132L130.932 36.1627Z" fill="#C2A486"/>
<path d="M169.398 13.132L137.133 0L98.667 23.0307L109.817 66.5567L142.115 79.6886L180.548 56.6579L169.398 13.132Z" fill="url(#paint0_linear_172_428)"/>
</g>
<path d="M123.735 53.5908C123.857 53.8012 121.078 55.6503 116.494 58.4959C111.91 61.3304 105.51 65.1505 98.3905 69.2694C91.2709 73.3884 84.7713 77.0423 80.0323 79.6C75.2822 82.1688 72.2926 83.6526 72.1708 83.4422C72.049 83.2318 74.8282 81.3827 79.4122 78.5371C83.9962 75.7025 90.3961 71.8825 97.5268 67.7636C104.646 63.6446 111.146 60.0017 115.885 57.4329C120.635 54.8641 123.625 53.3804 123.746 53.5908H123.735Z" fill="#B1B1B1"/>
<g opacity="0.87">
<path d="M106.938 190.845L118.088 234.371L79.6337 257.413L68.4727 213.887L106.938 190.845Z" fill="#AB7947"/>
<path d="M79.6333 257.413L47.357 244.281L36.207 200.755L68.4722 213.887L79.6333 257.413Z" fill="#AB7947"/>
<path d="M68.4722 213.887L36.207 200.755L74.6728 177.724L106.938 190.845L68.4722 213.887Z" fill="#C2A486"/>
<path d="M106.938 190.845L74.6728 177.724L36.207 200.755L47.357 244.281L79.6554 257.413L118.088 234.371L106.938 190.845Z" fill="url(#paint1_linear_172_428)"/>
</g>
<g opacity="0.87">
<path d="M316.85 183.549L328 227.074L289.534 250.105L278.384 206.579L316.85 183.549Z" fill="#AB7947"/>
<path d="M289.534 250.105L257.269 236.973L246.119 193.448L278.384 206.579L289.534 250.105Z" fill="#AB7947"/>
<path d="M278.384 206.579L246.119 193.448L284.585 170.417L316.85 183.549L278.384 206.579Z" fill="#C2A486"/>
<path d="M316.85 183.549L284.585 170.417L246.119 193.448L257.269 236.973L289.568 250.116L328 227.075L316.85 183.549Z" fill="url(#paint2_linear_172_428)"/>
</g>
<g opacity="0.87">
<path d="M204.764 134.42L215.914 177.946L177.448 200.977L166.298 157.451L204.764 134.42Z" fill="#AB7947"/>
<path d="M177.447 200.977L145.182 187.845L134.032 144.319L166.297 157.451L177.447 200.977Z" fill="#AB7947"/>
<path d="M166.297 157.451L134.032 144.319L172.498 121.288L204.763 134.42L166.297 157.451Z" fill="#C2A486"/>
<path d="M204.763 134.42L172.498 121.288L134.032 144.319L145.182 187.845L177.481 200.977L215.913 177.946L204.763 134.42Z" fill="url(#paint3_linear_172_428)"/>
</g>
<path d="M155.746 173.816C155.868 174.026 153.409 175.687 149.357 178.223C145.304 180.747 139.635 184.147 133.324 187.8C127.013 191.454 121.244 194.676 117.036 196.935C112.818 199.194 110.16 200.49 110.039 200.279C109.917 200.069 112.364 198.408 116.427 195.872C120.491 193.348 126.149 189.949 132.471 186.295C138.783 182.641 144.54 179.419 148.759 177.16C152.978 174.901 155.635 173.606 155.757 173.816H155.746Z" fill="#B1B1B1"/>
<path d="M269.869 225.757C269.991 225.967 267.433 227.695 263.215 230.308C258.996 232.932 253.106 236.453 246.551 240.24C239.996 244.038 234.006 247.393 229.632 249.74C225.258 252.087 222.49 253.438 222.368 253.239C222.247 253.04 224.793 251.301 229.012 248.688C233.231 246.064 239.121 242.543 245.676 238.745C252.231 234.947 258.221 231.603 262.595 229.245C266.968 226.897 269.736 225.547 269.858 225.746L269.869 225.757Z" fill="#B1B1B1"/>
<path d="M169.398 141.783C169.165 141.839 168.036 138.052 166.386 131.884C164.747 125.717 162.588 117.169 160.307 107.702C158.026 98.2351 156.067 89.6428 154.727 83.398C153.387 77.1531 152.678 73.2667 152.911 73.2113C153.143 73.1559 154.273 76.9427 155.923 83.1101C157.561 89.2774 159.72 97.8254 162.001 107.292C164.271 116.759 166.242 125.352 167.582 131.585C168.922 137.83 169.63 141.717 169.398 141.772V141.783Z" fill="#B1B1B1"/>
<path d="M69.6124 197.134C69.3799 197.19 68.2726 193.525 66.6782 187.557C65.0837 181.589 62.991 173.306 60.7876 164.138C58.5842 154.97 56.6797 146.644 55.3842 140.598C54.0888 134.553 53.4133 130.788 53.6459 130.733C53.8784 130.677 54.9856 134.342 56.5801 140.31C58.1745 146.279 60.2672 154.561 62.4706 163.729C64.6741 172.897 66.5785 181.212 67.874 187.258C69.1695 193.303 69.8449 197.068 69.6124 197.123V197.134Z" fill="#B1B1B1"/>
<path d="M282.813 187.191C282.581 187.247 281.529 183.781 280.001 178.123C278.484 172.465 276.491 164.626 274.409 155.945C272.317 147.253 270.523 139.369 269.305 133.645C268.087 127.921 267.456 124.344 267.688 124.289C267.921 124.233 268.973 127.699 270.501 133.357C272.018 139.015 274.011 146.854 276.092 155.535C278.185 164.216 279.979 172.1 281.197 177.835C282.415 183.56 283.046 187.136 282.813 187.191Z" fill="#B1B1B1"/>
<path d="M151.925 249.784C151.825 250.006 148.548 248.71 143.322 246.451C138.107 244.192 130.943 240.97 123.081 237.305C115.22 233.64 108.133 230.241 103.051 227.695C97.9688 225.148 94.8685 223.476 94.9682 223.254C95.0678 223.033 98.3453 224.328 103.56 226.587C108.776 228.846 115.939 232.068 123.801 235.733C131.662 239.398 138.738 242.797 143.831 245.344C148.913 247.891 152.014 249.563 151.914 249.784H151.925Z" fill="#B1B1B1"/>
<path d="M248.467 192.041C248.378 192.263 245.089 191.111 239.852 189.085C234.615 187.058 227.429 184.146 219.534 180.825C211.64 177.503 204.52 174.414 199.416 172.1C194.3 169.785 191.189 168.235 191.277 168.014C191.366 167.792 194.654 168.933 199.892 170.97C205.129 172.996 212.315 175.908 220.21 179.23C228.104 182.552 235.213 185.641 240.328 187.955C245.444 190.27 248.555 191.82 248.467 192.041Z" fill="#B1B1B1"/>
<path d="M192.793 168.025C192.793 168.955 192.041 169.719 191.099 169.719C190.158 169.719 189.405 168.966 189.405 168.025C189.405 167.084 190.158 166.331 191.099 166.331C192.041 166.331 192.793 167.084 192.793 168.025Z" fill="#B1B1B1"/>
<path d="M171.081 141.783C171.081 142.713 170.328 143.477 169.386 143.477C168.445 143.477 167.692 142.724 167.692 141.783C167.692 140.842 168.445 140.089 169.386 140.089C170.328 140.089 171.081 140.842 171.081 141.783Z" fill="#B1B1B1"/>
<path d="M157.429 173.816C157.429 174.746 156.676 175.51 155.735 175.51C154.794 175.51 154.041 174.757 154.041 173.816C154.041 172.875 154.794 172.122 155.735 172.122C156.676 172.122 157.429 172.875 157.429 173.816Z" fill="#B1B1B1"/>
<path d="M97.5591 223.254C97.5591 224.184 96.8061 224.948 95.865 224.948C94.9238 224.948 94.1709 224.196 94.1709 223.254C94.1709 222.313 94.9238 221.56 95.865 221.56C96.8061 221.56 97.5591 222.313 97.5591 223.254Z" fill="#B1B1B1"/>
<path d="M71.3071 197.135C71.3071 198.065 70.5542 198.829 69.613 198.829C68.6719 198.829 67.9189 198.076 67.9189 197.135C67.9189 196.193 68.6719 195.44 69.613 195.44C70.5542 195.44 71.3071 196.193 71.3071 197.135Z" fill="#B1B1B1"/>
<path d="M284.507 187.191C284.507 188.121 283.754 188.885 282.813 188.885C281.872 188.885 281.119 188.133 281.119 187.191C281.119 186.25 281.872 185.497 282.813 185.497C283.754 185.497 284.507 186.25 284.507 187.191Z" fill="#B1B1B1"/>
<path d="M125.429 54.1555C125.429 55.0856 124.676 55.8496 123.735 55.8496C122.794 55.8496 122.041 55.0967 122.041 54.1555C122.041 53.2144 122.794 52.4614 123.735 52.4614C124.676 52.4614 125.429 53.2144 125.429 54.1555Z" fill="#B1B1B1"/>
<path d="M271.552 225.757C271.552 226.687 270.799 227.451 269.858 227.451C268.917 227.451 268.164 226.698 268.164 225.757C268.164 224.816 268.917 224.063 269.858 224.063C270.799 224.063 271.552 224.816 271.552 225.757Z" fill="#B1B1B1"/>
<path d="M0.0111197 80.674C-0.0220978 80.6186 0.8637 80.0207 2.55779 78.9467C4.25188 77.8727 6.78748 76.3115 10.0317 74.3184C16.5313 70.3434 25.9318 64.6743 37.4804 57.754L37.7683 57.5879L38.0783 57.7208C47.2906 61.5851 57.9091 66.0251 69.4577 70.8749L69.8342 71.0299L69.9338 71.4285C73.1448 84.6933 76.6659 99.2536 80.353 114.478L80.508 115.109L79.9544 115.431C66.601 123.303 53.8344 130.843 42.1419 137.73L41.7876 137.941L41.4111 137.786C29.8625 132.836 19.3104 128.308 10.1092 124.366L9.79919 124.233L9.72168 123.912C6.62139 110.658 4.11901 99.8737 2.43599 92.3887C1.59448 88.6462 0.95228 85.7341 0.542599 83.7411C0.132917 81.7591 -0.0553152 80.7072 0.0111197 80.6851C0.0775545 80.674 0.387584 81.6927 0.919063 83.6525C1.45054 85.6123 2.21454 88.5022 3.16678 92.2115C5.07124 99.6412 7.76185 110.393 11.0172 123.602C10.8954 123.458 10.7736 123.314 10.6296 123.148C19.853 127.012 30.4494 131.452 42.0422 136.302C41.7987 136.313 41.5661 136.335 41.3115 136.346C52.9819 129.426 65.7263 121.853 79.0686 113.947C78.9357 114.257 78.8029 114.567 78.67 114.899C75.0272 99.6633 71.5393 85.0919 68.3726 71.816C68.5387 72.0043 68.6937 72.2036 68.8376 72.3696C57.3333 67.4313 46.748 62.8916 37.569 58.9609C37.7793 58.9498 37.9897 58.9387 38.1669 58.9166C26.5408 65.6929 17.0295 71.196 10.4192 74.9828C7.10858 76.8761 4.52869 78.3266 2.76817 79.301C1.00764 80.2754 0.0554096 80.7626 0.0221921 80.6961L0.0111197 80.674Z" fill="#B1B1B1"/>
<path d="M41.7326 137.022C41.5001 137.077 40.2599 132.87 38.4441 126.016C36.6282 119.162 34.2365 109.662 31.7009 99.1542C31.2912 97.438 30.8815 95.755 30.5051 94.1495C30.6712 94.3488 30.8373 94.5481 31.0033 94.7363C22.1564 90.9606 14.3725 87.5392 8.81411 85.0147C3.25572 82.5012 -0.0770916 80.8736 0.0114882 80.6743C0.100068 80.4749 3.57683 81.7261 9.25701 83.9738C14.9372 86.2105 22.8097 89.4437 31.6677 93.164L32.0663 93.3301L32.166 93.7508C32.5535 95.3453 32.9632 97.0394 33.3839 98.7445C35.9195 109.252 38.123 118.797 39.6288 125.728C41.1347 132.66 41.954 136.967 41.7215 137.022H41.7326Z" fill="#B1B1B1"/>
<path d="M31.3461 93.95C31.1025 93.5403 39.3736 88.2034 49.815 82.0249C60.2563 75.8465 68.915 71.185 69.1586 71.5946C69.4022 72.0043 61.131 77.3413 50.6897 83.5197C40.2483 89.6871 31.5897 94.3596 31.3461 93.95Z" fill="#B1B1B1"/>
<path d="M220.11 70.277C220.077 70.2217 220.963 69.6238 222.657 68.5497C224.362 67.4757 226.886 65.9145 230.131 63.9214C236.63 59.9464 246.031 54.2773 257.579 47.357L257.867 47.1909L258.177 47.3238C267.39 51.1881 278.008 55.6281 289.557 60.4779L289.933 60.6329L290.033 61.0315C293.244 74.2963 296.765 88.8567 300.452 104.081L300.596 104.712L300.042 105.034C286.689 112.906 273.922 120.446 262.23 127.334L261.875 127.544L261.499 127.389C249.95 122.439 239.398 117.911 230.197 113.969L229.887 113.836L229.81 113.515C226.709 100.261 224.207 89.4767 222.524 81.9917C221.682 78.2492 221.04 75.3372 220.63 73.3441C220.221 71.3621 220.033 70.3103 220.099 70.2881C220.165 70.277 220.475 71.2957 221.007 73.2555C221.538 75.2154 222.291 78.1053 223.255 81.8146C225.159 89.2442 227.839 99.9956 231.105 113.205C230.983 113.061 230.861 112.917 230.718 112.751C239.941 116.615 250.537 121.055 262.13 125.905C261.887 125.916 261.654 125.938 261.399 125.949C273.07 119.029 285.814 111.456 299.156 103.55C299.024 103.86 298.891 104.17 298.758 104.491C295.115 89.2553 291.627 74.6839 288.46 61.408C288.627 61.5962 288.782 61.7955 288.926 61.9616C277.421 57.0233 266.825 52.4836 257.657 48.5528C257.867 48.5418 258.078 48.5307 258.255 48.5085C246.629 55.2849 237.128 60.7879 230.507 64.5747C227.196 66.4681 224.617 67.9186 222.856 68.893C221.096 69.8674 220.143 70.3545 220.11 70.2881V70.277Z" fill="#B1B1B1"/>
<path d="M261.82 126.625C261.588 126.68 260.348 122.473 258.532 115.619C256.716 108.765 254.324 99.2649 251.789 88.7571C251.379 87.0409 250.969 85.3578 250.593 83.7523C250.759 83.9516 250.925 84.1509 251.091 84.3392C242.244 80.5635 234.46 77.1421 228.902 74.6175C223.344 72.093 220.011 70.4654 220.099 70.266C220.188 70.0667 223.665 71.3179 229.345 73.5657C235.025 75.8023 242.898 79.0354 251.756 82.7558L252.154 82.9219L252.254 83.3426C252.641 84.9482 253.051 86.6312 253.461 88.3363C255.996 98.8441 258.2 108.389 259.706 115.32C261.211 122.251 262.031 126.559 261.798 126.614L261.82 126.625Z" fill="#B1B1B1"/>
<path d="M251.434 83.553C251.19 83.1433 259.461 77.8064 269.903 71.6279C280.344 65.4495 289.003 60.788 289.246 61.1977C289.49 61.6074 281.219 66.9443 270.778 73.1227C260.336 79.2901 251.678 83.9627 251.434 83.553Z" fill="#B1B1B1"/>
</g>
<defs>
<linearGradient id="paint0_linear_172_428" x1="183.477" y1="13.7486" x2="117.114" y2="53.2369" gradientUnits="userSpaceOnUse">
<stop stop-color="#C2A486"/>
<stop offset="1" stop-color="#C2A486" stop-opacity="0.35"/>
</linearGradient>
<linearGradient id="paint1_linear_172_428" x1="121.017" y1="191.466" x2="54.6642" y2="230.966" gradientUnits="userSpaceOnUse">
<stop stop-color="#FFF9F3"/>
<stop offset="1" stop-color="#C2A486" stop-opacity="0"/>
</linearGradient>
<linearGradient id="paint2_linear_172_428" x1="330.93" y1="184.158" x2="264.578" y2="223.658" gradientUnits="userSpaceOnUse">
<stop stop-color="#AB7947"/>
<stop offset="1" stop-color="#C2A486"/>
</linearGradient>
<linearGradient id="paint3_linear_172_428" x1="218.842" y1="135.048" x2="152.48" y2="174.536" gradientUnits="userSpaceOnUse">
<stop stop-color="#C2A486"/>
<stop offset="1" stop-color="#C2B586"/>
</linearGradient>
<clipPath id="clip0_172_428">
<rect width="328" height="304.77" fill="white"/>
</clipPath>
</defs>
</svg>
