<svg width="152" height="275" viewBox="0 0 152 275" fill="none" xmlns="http://www.w3.org/2000/svg">
<path d="M151.254 213.865C151.289 213.806 150.344 213.168 148.538 212.021C146.72 210.875 144.028 209.208 140.569 207.08C133.639 202.837 123.615 196.785 111.301 189.397L110.994 189.22L110.664 189.362C100.841 193.487 89.5189 198.227 77.2051 203.404L76.8036 203.57L76.6974 203.995C73.2736 218.156 69.5192 233.7 65.5877 249.953L65.4343 250.626L66.0246 250.969C80.2629 259.373 93.8754 267.423 106.343 274.775L106.721 275L107.122 274.834C119.436 269.551 130.687 264.716 140.498 260.508L140.829 260.366L140.911 260.024C144.217 245.875 146.885 234.362 148.68 226.371C149.577 222.376 150.262 219.267 150.699 217.139C151.135 215.024 151.336 213.901 151.265 213.877C151.195 213.865 150.864 214.953 150.297 217.045C149.731 219.137 148.916 222.222 147.901 226.182C145.87 234.113 143.001 245.591 139.53 259.693C139.66 259.539 139.79 259.385 139.943 259.208C130.109 263.333 118.81 268.073 106.449 273.25C106.709 273.262 106.957 273.286 107.228 273.298C94.7845 265.91 81.1955 257.825 66.9691 249.385C67.1107 249.716 67.2524 250.047 67.3941 250.39C71.2783 234.125 74.9973 218.57 78.3739 204.397C78.1968 204.598 78.0315 204.811 77.878 204.988C90.1446 199.716 101.431 194.87 111.219 190.674C110.994 190.662 110.77 190.638 110.581 190.626C122.978 197.86 133.107 203.735 140.168 207.778C143.698 209.799 146.448 211.347 148.337 212.388C150.215 213.428 151.23 213.948 151.265 213.877L151.254 213.865Z" fill="#B1B1B1"/>
<path d="M106.767 274.019C107.015 274.078 108.337 269.586 110.274 262.269C112.21 254.953 114.76 244.811 117.464 233.593C117.901 231.761 118.337 229.964 118.739 228.262C118.562 228.475 118.385 228.688 118.207 228.889C127.641 224.858 135.94 221.206 141.867 218.51C147.794 215.815 151.347 214.078 151.253 213.865C151.159 213.652 147.451 214.988 141.395 217.388C135.338 219.775 126.944 223.227 117.499 227.198L117.074 227.376L116.968 227.825C116.555 229.539 116.118 231.336 115.681 233.156C112.977 244.373 110.628 254.562 109.022 261.962C107.417 269.362 106.543 273.96 106.791 274.019H106.767Z" fill="#B1B1B1"/>
<path d="M117.842 228.038C118.102 227.6 109.283 221.903 98.1493 215.307C87.0161 208.712 77.7836 203.735 77.5239 204.173C77.2641 204.61 86.0834 210.307 97.2166 216.903C108.35 223.487 117.582 228.475 117.842 228.038Z" fill="#B1B1B1"/>
<g opacity="0.87">
<path d="M-26.1114 145.567L-38.0003 192.033L3.01449 216.619L14.9033 170.153L-26.1114 145.567Z" fill="#AB7947"/>
<path d="M3.01454 216.619L37.4178 202.6L49.3066 156.135L14.9034 170.153L3.01454 216.619Z" fill="#AB7947"/>
<path d="M14.9034 170.154L49.3066 156.135L8.29191 131.548L-26.1114 145.567L14.9034 170.154Z" fill="#C2A486"/>
<path d="M-26.1114 145.567L8.29191 131.548L49.3066 156.135L37.4178 202.6L2.97912 216.631L-38.0002 192.033L-26.1114 145.567Z" fill="url(#paint0_linear_172_399)"/>
</g>
<path d="M23.9827 190.626C23.8528 190.851 26.58 192.695 31.0782 195.485C35.5764 198.286 41.8573 202.045 48.8465 206.087C55.8358 210.142 62.223 213.723 66.8864 216.229C71.5499 218.735 74.5014 220.177 74.6313 219.965C74.7612 219.752 72.0457 217.896 67.5476 215.106C63.0494 212.305 56.7685 208.546 49.7792 204.492C42.79 200.437 36.4028 196.868 31.7393 194.35C27.0759 191.844 24.1244 190.402 23.9945 190.615L23.9827 190.626Z" fill="#B1B1B1"/>
<path d="M10.1813 149.456C10.4292 149.515 11.5508 145.816 13.1801 139.775C14.7975 133.735 16.9226 125.366 19.1422 116.099C21.3736 106.82 23.2862 98.4042 24.5849 92.2931C25.8835 86.182 26.5565 82.364 26.3086 82.3049C26.0606 82.2458 24.939 85.9456 23.3098 91.9857C21.6923 98.0259 19.5672 106.395 17.3476 115.662C15.1163 124.929 13.2037 133.345 11.905 139.468C10.6063 145.579 9.93336 149.397 10.1813 149.456Z" fill="#B1B1B1"/>
<path d="M77.0397 24.6454C77.0751 24.5863 76.1306 23.948 74.3243 22.8014C72.5061 21.6548 69.8143 19.9882 66.3551 17.8605C59.4248 13.617 49.4014 7.56501 37.0875 0.177307L36.7805 0L36.45 0.141847C26.6272 4.26714 15.305 9.00709 2.99117 14.1844L2.58977 14.3499L2.48351 14.7754C-0.940285 28.9362 -4.69466 44.4799 -8.62613 60.7329L-8.77962 61.4066L-8.18931 61.7494C6.04897 70.1537 19.6615 78.2033 32.1289 85.5555L32.5067 85.7801L32.9081 85.6147C45.222 80.331 56.4733 75.4964 66.2842 71.2884L66.6148 71.1466L66.6974 70.8038C70.0032 56.6548 72.6714 45.1418 74.4659 37.1513C75.3632 33.156 76.048 30.0473 76.4848 27.9196C76.9216 25.8038 77.1223 24.6808 77.0515 24.6572C76.9807 24.6454 76.6501 25.7329 76.0834 27.8251C75.5167 29.9173 74.7139 33.0024 73.6867 36.9622C71.656 44.8936 68.799 56.3712 65.3161 70.4728C65.446 70.3191 65.5759 70.1655 65.7293 69.9882C55.8948 74.1135 44.5962 78.8534 32.2351 84.0307C32.4949 84.0425 32.7428 84.0662 33.0144 84.078C20.5706 76.6903 6.98168 68.6052 -7.24479 60.1655C-7.10311 60.4964 -6.96146 60.8274 -6.81979 61.1702C-2.93554 44.9054 0.78344 29.3499 4.16001 15.1773C3.98292 15.3782 3.81762 15.591 3.66414 15.7683C15.9308 10.4965 27.2293 5.65012 37.0049 1.4539C36.7805 1.44208 36.5562 1.43026 36.3673 1.40662C48.7638 8.64066 58.8936 14.5154 65.9537 18.5579C69.4837 20.5792 72.2346 22.1277 74.1117 23.1678C75.9889 24.208 77.0043 24.7281 77.0397 24.6572V24.6454Z" fill="#B1B1B1"/>
<path d="M32.5661 84.7991C32.814 84.8582 34.1363 80.3665 36.0725 73.0497C38.0088 65.7329 40.5589 55.5911 43.2625 44.3736C43.6994 42.5415 44.1362 40.7448 44.5376 39.0308C44.3605 39.2436 44.1834 39.4564 44.0063 39.6573C53.4395 35.6266 61.7392 31.9741 67.6659 29.279C73.5927 26.584 77.1463 24.8464 77.0519 24.6337C76.9574 24.4209 73.2503 25.7566 67.1937 28.1561C61.1371 30.5438 52.7429 33.9954 43.298 37.967L42.8729 38.1443L42.7667 38.5935C42.3534 40.3074 41.9166 42.1041 41.4798 43.9244C38.7762 55.1419 36.4267 65.3311 34.8211 72.7306C33.2154 80.1301 32.3418 84.7282 32.5897 84.7873L32.5661 84.7991Z" fill="#B1B1B1"/>
<path d="M43.6399 38.818C43.8997 38.3807 35.0804 32.6833 23.9472 26.0875C12.8139 19.4918 3.58146 14.5154 3.32172 14.9528C3.06199 15.3901 11.8812 21.0875 23.0145 27.6833C34.1477 34.2672 43.3802 39.2554 43.6399 38.818Z" fill="#B1B1B1"/>
<defs>
<linearGradient id="paint0_linear_172_399" x1="-41.1247" y1="146.217" x2="29.669" y2="188.311" gradientUnits="userSpaceOnUse">
<stop stop-color="#AB7947"/>
<stop offset="1" stop-color="#C2A486"/>
</linearGradient>
</defs>
</svg>
