<svg width="522" height="485" viewBox="0 0 522 485" fill="none" xmlns="http://www.w3.org/2000/svg">
<g clip-path="url(#clip0_172_142)">
<path d="M239.513 393.903C239.46 393.815 240.87 392.863 243.566 391.154C246.279 389.445 250.297 386.96 255.459 383.789C265.803 377.463 280.762 368.441 299.14 357.429L299.598 357.164L300.092 357.376C314.752 363.525 331.65 370.591 350.028 378.309L350.627 378.555L350.786 379.19C355.895 400.299 361.499 423.47 367.366 447.698L367.595 448.702L366.714 449.213C345.464 461.741 325.148 473.741 306.541 484.7L305.977 485.035L305.378 484.789C287 476.912 270.208 469.706 255.565 463.433L255.072 463.221L254.948 462.71C250.015 441.619 246.033 424.457 243.354 412.545C242.015 406.589 240.993 401.955 240.341 398.784C239.689 395.63 239.39 393.956 239.495 393.92C239.601 393.903 240.095 395.524 240.94 398.643C241.786 401.762 243.002 406.36 244.517 412.263C247.548 424.086 251.83 441.196 257.01 462.217C256.816 461.988 256.622 461.759 256.393 461.494C271.071 467.644 287.934 474.71 306.382 482.427C305.995 482.445 305.625 482.48 305.219 482.498C323.791 471.485 344.072 459.433 365.305 446.852C365.093 447.345 364.882 447.839 364.67 448.35C358.873 424.104 353.323 400.916 348.283 379.789C348.548 380.088 348.794 380.406 349.023 380.67C330.716 372.811 313.871 365.587 299.264 359.332C299.598 359.314 299.933 359.279 300.215 359.261C281.714 370.045 266.596 378.802 256.059 384.828C250.79 387.841 246.685 390.15 243.865 391.7C241.064 393.251 239.548 394.026 239.495 393.92L239.513 393.903Z" fill="#B1B1B1"/>
<path d="M305.907 483.573C305.537 483.661 303.563 476.965 300.674 466.058C297.784 455.151 293.978 440.033 289.943 423.311C289.291 420.58 288.639 417.902 288.04 415.364C288.304 415.682 288.569 415.999 288.833 416.298C274.754 410.29 262.367 404.845 253.522 400.828C244.676 396.81 239.373 394.22 239.513 393.903C239.654 393.586 245.187 395.577 254.226 399.154C263.266 402.713 275.794 407.858 289.89 413.779L290.524 414.043L290.683 414.712C291.3 417.267 291.952 419.946 292.604 422.659C296.639 439.381 300.145 454.57 302.541 465.6C304.938 476.63 306.242 483.485 305.872 483.573H305.907Z" fill="#B1B1B1"/>
<path d="M289.378 415.03C288.991 414.378 302.153 405.885 318.769 396.053C335.385 386.22 349.164 378.802 349.552 379.454C349.94 380.106 336.777 388.599 320.161 398.431C303.545 408.246 289.766 415.682 289.378 415.03Z" fill="#B1B1B1"/>
<g opacity="0.87">
<path d="M269.573 20.8977L287.317 90.1633L226.104 126.814L208.36 57.5481L269.573 20.8977Z" fill="#AB7947"/>
<path d="M226.104 126.814L174.758 105.916L157.015 36.6503L208.36 57.5481L226.104 126.814Z" fill="#AB7947"/>
<path d="M208.36 57.548L157.015 36.6503L218.228 0L269.573 20.8977L208.36 57.548Z" fill="#C2A486"/>
<path d="M269.573 20.8977L218.228 0L157.015 36.6503L174.758 105.916L226.157 126.814L287.317 90.1633L269.573 20.8977Z" fill="url(#paint0_linear_172_142)"/>
</g>
<path d="M196.907 85.2825C197.101 85.6173 192.678 88.5599 185.383 93.0883C178.088 97.5991 167.904 103.678 156.574 110.233C145.244 116.788 134.901 122.602 127.359 126.673C119.8 130.761 115.043 133.122 114.849 132.787C114.655 132.452 119.078 129.51 126.373 124.981C133.667 120.47 143.852 114.391 155.199 107.837C166.529 101.282 176.873 95.4847 184.414 91.3967C191.973 87.3088 196.731 84.9477 196.924 85.2825H196.907Z" fill="#B1B1B1"/>
<g opacity="0.87">
<path d="M170.177 303.704L187.921 372.97L126.725 409.638L108.964 340.372L170.177 303.704Z" fill="#AB7947"/>
<path d="M126.725 409.638L75.3619 388.74L57.6182 319.474L108.964 340.372L126.725 409.638Z" fill="#AB7947"/>
<path d="M108.964 340.372L57.6182 319.474L118.831 282.824L170.177 303.704L108.964 340.372Z" fill="#C2A486"/>
<path d="M170.177 303.704L118.831 282.824L57.6182 319.474L75.3619 388.74L126.76 409.638L187.921 372.97L170.177 303.704Z" fill="url(#paint1_linear_172_142)"/>
</g>
<g opacity="0.87">
<path d="M504.224 292.092L521.968 361.358L460.754 398.008L443.011 328.743L504.224 292.092Z" fill="#AB7947"/>
<path d="M460.754 398.008L409.409 377.111L391.665 307.845L443.011 328.743L460.754 398.008Z" fill="#AB7947"/>
<path d="M443.011 328.743L391.665 307.845L452.878 271.195L504.224 292.092L443.011 328.743Z" fill="#C2A486"/>
<path d="M504.224 292.092L452.878 271.195L391.665 307.845L409.409 377.111L460.807 398.026L521.968 361.358L504.224 292.092Z" fill="url(#paint2_linear_172_142)"/>
</g>
<g opacity="0.87">
<path d="M325.853 213.911L343.596 283.177L282.383 319.827L264.64 250.561L325.853 213.911Z" fill="#AB7947"/>
<path d="M282.383 319.827L231.038 298.929L213.294 229.664L264.64 250.561L282.383 319.827Z" fill="#AB7947"/>
<path d="M264.64 250.561L213.294 229.664L274.507 193.013L325.853 213.911L264.64 250.561Z" fill="#C2A486"/>
<path d="M325.853 213.911L274.507 193.013L213.294 229.664L231.038 298.929L282.436 319.827L343.596 283.177L325.853 213.911Z" fill="url(#paint3_linear_172_142)"/>
</g>
<path d="M247.847 276.604C248.041 276.939 244.129 279.582 237.68 283.617C231.231 287.635 222.21 293.044 212.166 298.859C202.122 304.673 192.942 309.801 186.246 313.395C179.533 316.99 175.304 319.052 175.11 318.717C174.917 318.382 178.811 315.739 185.277 311.704C191.744 307.686 200.748 302.277 210.809 296.462C220.853 290.648 230.015 285.52 236.729 281.926C243.442 278.331 247.671 276.269 247.865 276.604H247.847Z" fill="#B1B1B1"/>
<path d="M429.46 359.261C429.654 359.596 425.584 362.345 418.87 366.503C412.157 370.679 402.783 376.282 392.352 382.309C381.921 388.352 372.388 393.691 365.428 397.427C358.468 401.162 354.063 403.312 353.869 402.995C353.675 402.678 357.728 399.911 364.441 395.753C371.155 391.577 380.529 385.974 390.96 379.93C401.391 373.886 410.924 368.565 417.884 364.812C424.844 361.076 429.249 358.926 429.443 359.244L429.46 359.261Z" fill="#B1B1B1"/>
<path d="M269.574 225.629C269.204 225.717 267.406 219.69 264.781 209.876C262.173 200.061 258.737 186.458 255.107 171.393C251.478 156.328 248.359 142.654 246.227 132.716C244.095 122.779 242.967 116.594 243.337 116.506C243.707 116.418 245.504 122.444 248.13 132.258C250.738 142.073 254.174 155.676 257.803 170.741C261.416 185.807 264.552 199.48 266.684 209.4C268.816 219.338 269.944 225.523 269.574 225.611V225.629Z" fill="#B1B1B1"/>
<path d="M110.779 313.713C110.409 313.801 108.647 307.968 106.11 298.471C103.573 288.974 100.242 275.794 96.736 261.204C93.2296 246.614 90.1989 233.364 88.1373 223.743C86.0757 214.122 85.0009 208.132 85.3709 208.043C85.7409 207.955 87.503 213.788 90.0403 223.285C92.5776 232.782 95.9079 245.962 99.4143 260.552C102.921 275.142 105.951 288.375 108.013 297.995C110.075 307.616 111.149 313.607 110.779 313.695V313.713Z" fill="#B1B1B1"/>
<path d="M450.059 297.89C449.689 297.978 448.015 292.462 445.584 283.458C443.17 274.454 439.998 261.979 436.685 248.165C433.355 234.333 430.501 221.787 428.562 212.678C426.624 203.568 425.62 197.876 425.99 197.788C426.36 197.7 428.034 203.215 430.465 212.219C432.879 221.223 436.051 233.699 439.364 247.513C442.694 261.327 445.548 273.873 447.487 283C449.425 292.11 450.429 297.801 450.059 297.89Z" fill="#B1B1B1"/>
<path d="M241.769 397.497C241.61 397.85 236.395 395.788 228.078 392.194C219.779 388.599 208.378 383.472 195.868 377.639C183.357 371.807 172.08 366.397 163.993 362.345C155.905 358.292 150.971 355.631 151.13 355.279C151.288 354.927 156.504 356.988 164.803 360.583C173.102 364.177 184.503 369.305 197.013 375.137C209.524 380.969 220.783 386.379 228.888 390.432C236.976 394.484 241.91 397.145 241.751 397.497H241.769Z" fill="#B1B1B1"/>
<path d="M395.401 305.607C395.26 305.96 390.026 304.127 381.692 300.903C373.358 297.678 361.922 293.044 349.359 287.758C336.795 282.472 325.466 277.556 317.343 273.873C309.202 270.19 304.251 267.724 304.392 267.371C304.533 267.019 309.766 268.834 318.1 272.076C326.435 275.3 337.87 279.934 350.434 285.221C362.997 290.507 374.309 295.423 382.45 299.105C390.59 302.788 395.542 305.255 395.401 305.607Z" fill="#B1B1B1"/>
<path d="M306.806 267.389C306.806 268.869 305.608 270.085 304.11 270.085C302.612 270.085 301.414 268.886 301.414 267.389C301.414 265.891 302.612 264.693 304.11 264.693C305.608 264.693 306.806 265.891 306.806 267.389Z" fill="#B1B1B1"/>
<path d="M272.252 225.629C272.252 227.109 271.054 228.324 269.556 228.324C268.059 228.324 266.86 227.126 266.86 225.629C266.86 224.131 268.059 222.933 269.556 222.933C271.054 222.933 272.252 224.131 272.252 225.629Z" fill="#B1B1B1"/>
<path d="M250.527 276.604C250.527 278.084 249.328 279.3 247.831 279.3C246.333 279.3 245.135 278.102 245.135 276.604C245.135 275.106 246.333 273.908 247.831 273.908C249.328 273.908 250.527 275.106 250.527 276.604Z" fill="#B1B1B1"/>
<path d="M155.253 355.279C155.253 356.759 154.055 357.975 152.557 357.975C151.06 357.975 149.861 356.777 149.861 355.279C149.861 353.781 151.06 352.583 152.557 352.583C154.055 352.583 155.253 353.781 155.253 355.279Z" fill="#B1B1B1"/>
<path d="M113.475 313.713C113.475 315.193 112.277 316.409 110.779 316.409C109.281 316.409 108.083 315.21 108.083 313.713C108.083 312.215 109.281 311.017 110.779 311.017C112.277 311.017 113.475 312.215 113.475 313.713Z" fill="#B1B1B1"/>
<path d="M452.754 297.89C452.754 299.37 451.556 300.585 450.058 300.585C448.56 300.585 447.362 299.387 447.362 297.89C447.362 296.392 448.56 295.194 450.058 295.194C451.556 295.194 452.754 296.392 452.754 297.89Z" fill="#B1B1B1"/>
<path d="M199.603 86.1811C199.603 87.6612 198.405 88.877 196.907 88.877C195.409 88.877 194.211 87.6788 194.211 86.1811C194.211 84.6834 195.409 83.4852 196.907 83.4852C198.405 83.4852 199.603 84.6834 199.603 86.1811Z" fill="#B1B1B1"/>
<path d="M432.139 359.261C432.139 360.741 430.941 361.957 429.443 361.957C427.945 361.957 426.747 360.759 426.747 359.261C426.747 357.763 427.945 356.565 429.443 356.565C430.941 356.565 432.139 357.763 432.139 359.261Z" fill="#B1B1B1"/>
<path d="M0.0178739 128.382C-0.0349871 128.294 1.37464 127.342 4.07055 125.633C6.76647 123.924 10.8015 121.439 15.9643 118.268C26.3074 111.942 41.2671 102.92 59.6451 91.9077L60.1033 91.6434L60.5966 91.8549C75.2568 98.0044 92.1547 105.07 110.533 112.788L111.132 113.035L111.29 113.669C116.4 134.778 122.004 157.949 127.871 182.177L128.118 183.181L127.237 183.692C105.987 196.22 85.6704 208.22 67.0633 219.179L66.4994 219.514L65.9004 219.268C47.5223 211.391 30.7301 204.185 16.0876 197.912L15.5943 197.7L15.4709 197.189C10.5372 176.098 6.55502 158.936 3.87673 147.024C2.53758 141.068 1.5156 136.434 0.86365 133.263C0.211698 130.109 -0.0878482 128.435 0.0178739 128.399C0.123596 128.382 0.616966 130.003 1.46274 133.122C2.30852 136.241 3.52432 140.839 5.03967 146.742C8.07037 158.565 12.3521 175.675 17.5325 196.696C17.3387 196.467 17.1448 196.238 16.9158 195.973C31.5935 202.123 48.4562 209.189 66.9047 216.906C66.5171 216.924 66.147 216.959 65.7418 216.977C84.3136 205.964 104.595 193.912 125.827 181.331C125.616 181.824 125.404 182.318 125.193 182.846C119.396 158.601 113.845 135.412 108.806 114.286C109.07 114.585 109.317 114.902 109.546 115.167C91.2384 107.308 74.3934 100.084 59.7861 93.8283C60.1209 93.8107 60.4557 93.7931 60.7376 93.7578C42.2362 104.541 27.1003 113.299 16.581 119.325C11.3125 122.338 7.20697 124.646 4.40534 126.197C1.6037 127.748 0.0883553 128.523 0.0354942 128.417L0.0178739 128.382Z" fill="#B1B1B1"/>
<path d="M66.4108 218.052C66.0408 218.14 64.0673 211.444 61.1776 200.537C58.2879 189.63 54.4819 174.512 50.4468 157.79C49.7949 155.059 49.1429 152.381 48.5438 149.826C48.8081 150.143 49.0724 150.46 49.3367 150.76C35.2581 144.751 22.871 139.306 14.0256 135.289C5.18015 131.289 -0.123573 128.699 0.0173897 128.382C0.158352 128.065 5.69114 130.056 14.7304 133.633C23.7696 137.192 36.2977 142.337 50.394 148.258L51.0283 148.522L51.1869 149.191C51.8036 151.729 52.4555 154.425 53.1251 157.138C57.1602 173.86 60.6666 189.049 63.063 200.079C65.4594 211.109 66.7633 217.964 66.3932 218.052H66.4108Z" fill="#B1B1B1"/>
<path d="M49.8833 149.509C49.4957 148.857 62.6581 140.364 79.2741 130.531C95.8901 120.699 109.669 113.281 110.057 113.933C110.444 114.585 97.2821 123.078 80.6661 132.91C64.0501 142.725 50.271 150.161 49.8833 149.509Z" fill="#B1B1B1"/>
<path d="M350.275 111.836C350.222 111.748 351.632 110.797 354.327 109.088C357.041 107.378 361.058 104.894 366.221 101.722C376.564 95.3965 391.524 86.3749 409.902 75.3622L410.36 75.0979L410.853 75.3093C425.514 81.4589 442.412 88.5246 460.79 96.2423L461.389 96.489L461.547 97.1233C466.657 118.233 472.26 141.403 478.128 165.631L478.357 166.636L477.476 167.147C456.226 179.675 435.91 191.674 417.303 202.634L416.739 202.969L416.14 202.722C397.762 194.846 380.969 187.639 366.327 181.366L365.834 181.155L365.71 180.644C360.776 159.552 356.794 142.39 354.116 130.479C352.777 124.523 351.755 119.889 351.103 116.717C350.451 113.563 350.151 111.889 350.257 111.854C350.363 111.836 350.856 113.457 351.702 116.576C352.548 119.695 353.746 124.294 355.279 130.197C358.31 142.02 362.574 159.129 367.772 180.15C367.578 179.921 367.384 179.692 367.155 179.428C381.833 185.577 398.695 192.643 417.144 200.361C416.756 200.379 416.386 200.414 415.981 200.431C434.553 189.419 454.834 177.366 476.066 164.785C475.855 165.279 475.644 165.772 475.432 166.283C469.635 142.038 464.085 118.849 459.045 97.7224C459.309 98.022 459.556 98.3391 459.785 98.6034C441.478 90.7448 424.615 83.5204 410.025 77.2652C410.36 77.2476 410.695 77.23 410.977 77.1947C392.475 87.9784 377.357 96.7357 366.82 102.762C361.552 105.775 357.446 108.083 354.645 109.634C351.843 111.184 350.328 111.96 350.275 111.854V111.836Z" fill="#B1B1B1"/>
<path d="M416.65 201.506C416.28 201.594 414.307 194.899 411.417 183.992C408.527 173.085 404.721 157.966 400.686 141.245C400.034 138.514 399.382 135.835 398.783 133.28C399.047 133.597 399.312 133.915 399.576 134.214C385.497 128.206 373.11 122.761 364.265 118.744C355.419 114.726 350.116 112.136 350.257 111.819C350.398 111.502 355.93 113.493 364.97 117.07C374.009 120.629 386.537 125.774 400.633 131.694L401.268 131.959L401.426 132.628C402.043 135.183 402.695 137.862 403.347 140.575C407.382 157.297 410.888 172.486 413.285 183.516C415.681 194.546 416.985 201.401 416.615 201.489L416.65 201.506Z" fill="#B1B1B1"/>
<path d="M400.123 132.963C399.735 132.311 412.897 123.818 429.513 113.986C446.129 104.154 459.908 96.7357 460.296 97.3876C460.684 98.0396 447.521 106.533 430.905 116.365C414.289 126.179 400.51 133.615 400.123 132.963Z" fill="#B1B1B1"/>
</g>
<defs>
<linearGradient id="paint0_linear_172_142" x1="291.978" y1="21.8791" x2="186.371" y2="84.7193" gradientUnits="userSpaceOnUse">
<stop stop-color="#C2A486"/>
<stop offset="1" stop-color="#C2A486" stop-opacity="0.35"/>
</linearGradient>
<linearGradient id="paint1_linear_172_142" x1="192.581" y1="304.692" x2="86.9903" y2="367.551" gradientUnits="userSpaceOnUse">
<stop stop-color="#FFF9F3"/>
<stop offset="1" stop-color="#C2A486" stop-opacity="0"/>
</linearGradient>
<linearGradient id="paint2_linear_172_142" x1="526.631" y1="293.061" x2="421.04" y2="355.921" gradientUnits="userSpaceOnUse">
<stop stop-color="#AB7947"/>
<stop offset="1" stop-color="#C2A486"/>
</linearGradient>
<linearGradient id="paint3_linear_172_142" x1="348.258" y1="214.91" x2="242.651" y2="277.751" gradientUnits="userSpaceOnUse">
<stop stop-color="#C2A486"/>
<stop offset="1" stop-color="#C2B586"/>
</linearGradient>
<clipPath id="clip0_172_142">
<rect width="521.968" height="485" fill="white"/>
</clipPath>
</defs>
</svg>
