<svg width="140" height="275" viewBox="0 0 140 275" fill="none" xmlns="http://www.w3.org/2000/svg">
<path d="M0.025739 213.865C-0.00967958 213.806 0.93482 213.168 2.74117 212.021C4.55932 210.875 7.25114 209.208 10.7104 207.08C17.6406 202.837 27.6641 196.785 39.9779 189.397L40.2849 189.22L40.6155 189.362C50.4382 193.487 61.7604 198.227 74.0742 203.404L74.4757 203.57L74.5819 203.995C78.0057 218.156 81.7601 233.7 85.6916 249.953L85.845 250.626L85.2547 250.969C71.0164 259.374 57.4039 267.423 44.9365 274.775L44.5587 275L44.1573 274.835C31.8435 269.551 20.5921 264.716 10.7812 260.508L10.4506 260.366L10.368 260.024C7.06225 245.875 4.39404 234.362 2.5995 226.371C1.70223 222.376 1.01746 219.267 0.580632 217.139C0.143802 215.024 -0.0568979 213.901 0.0139393 213.877C0.0847765 213.865 0.415359 214.953 0.982057 217.045C1.54875 219.137 2.36338 222.222 3.37871 226.182C5.40938 234.113 8.27828 245.591 11.7493 259.693C11.6194 259.539 11.4896 259.385 11.3361 259.208C21.1706 263.333 32.4692 268.073 44.8303 273.251C44.5706 273.262 44.3226 273.286 44.0511 273.298C56.4948 265.91 70.0838 257.825 84.3102 249.385C84.1686 249.716 84.0269 250.047 83.8852 250.39C80.001 234.125 76.282 218.57 72.9054 204.397C73.0825 204.598 73.2478 204.811 73.4013 204.988C61.1347 199.716 49.8479 194.87 40.0606 190.674C40.2849 190.662 40.5092 190.638 40.6981 190.626C28.3016 197.861 18.1719 203.735 11.1118 207.778C7.58173 209.799 4.83086 211.348 2.94187 212.388C1.06469 213.428 0.0493579 213.948 0.0139393 213.877L0.025739 213.865Z" fill="#B1B1B1"/>
<path d="M44.512 274.019C44.2641 274.078 42.9418 269.586 41.0056 262.269C39.0694 254.953 36.5192 244.811 33.8156 233.593C33.3788 231.761 32.9419 229.965 32.5405 228.262C32.7176 228.475 32.8947 228.688 33.0718 228.889C23.6387 224.858 15.3389 221.206 9.4122 218.511C3.48548 215.816 -0.0681988 214.078 0.0262508 213.865C0.1207 213.652 3.82785 214.988 9.88444 217.388C15.941 219.775 24.3352 223.227 33.7802 227.199L34.2052 227.376L34.3115 227.825C34.7247 229.539 35.1615 231.336 35.5983 233.156C38.302 244.373 40.6514 254.563 42.257 261.962C43.8627 269.362 44.7363 273.96 44.4884 274.019H44.512Z" fill="#B1B1B1"/>
<path d="M33.4372 228.038C33.1775 227.601 41.9967 221.903 53.13 215.307C64.2632 208.712 73.4957 203.735 73.7554 204.173C74.0152 204.61 65.1959 210.307 54.0627 216.903C42.9294 223.487 33.697 228.475 33.4372 228.038Z" fill="#B1B1B1"/>
<g opacity="0.87">
<path d="M177.391 145.567L189.28 192.033L148.265 216.619L136.376 170.154L177.391 145.567Z" fill="#AB7947"/>
<path d="M148.265 216.619L113.862 202.6L101.973 156.135L136.376 170.154L148.265 216.619Z" fill="#AB7947"/>
<path d="M136.376 170.154L101.973 156.135L142.987 131.548L177.391 145.567L136.376 170.154Z" fill="#C2A486"/>
<path d="M177.391 145.567L142.987 131.548L101.973 156.135L113.862 202.6L148.3 216.631L189.28 192.033L177.391 145.567Z" fill="url(#paint0_linear_172_203)"/>
</g>
<path d="M127.297 190.626C127.426 190.851 124.699 192.695 120.201 195.485C115.703 198.286 109.422 202.045 102.433 206.087C95.4435 210.142 89.0563 213.723 84.3929 216.229C79.7294 218.735 76.7779 220.177 76.648 219.965C76.5181 219.752 79.2336 217.896 83.7317 215.106C88.2299 212.305 94.5108 208.546 101.5 204.492C108.489 200.437 114.876 196.868 119.54 194.35C124.203 191.844 127.155 190.402 127.285 190.615L127.297 190.626Z" fill="#B1B1B1"/>
<path d="M141.098 149.456C140.85 149.515 139.728 145.816 138.099 139.775C136.482 133.735 134.357 125.366 132.137 116.099C129.906 106.82 127.993 98.4043 126.694 92.2932C125.396 86.1821 124.723 82.3641 124.971 82.305C125.219 82.2459 126.34 85.9457 127.97 91.9859C129.587 98.0261 131.712 106.395 133.932 115.662C136.163 124.929 138.076 133.345 139.374 139.468C140.673 145.579 141.346 149.397 141.098 149.456Z" fill="#B1B1B1"/>
<path d="M74.2396 24.6454C74.2042 24.5863 75.1487 23.948 76.955 22.8014C78.7732 21.6548 81.465 19.9882 84.9242 17.8605C91.8545 13.617 101.878 7.56501 114.192 0.177307L114.499 0L114.829 0.141847C124.652 4.26714 135.974 9.00709 148.288 14.1844L148.69 14.3499L148.796 14.7754C152.22 28.9362 155.974 44.4799 159.905 60.7329L160.059 61.4066L159.469 61.7494C145.23 70.1537 131.618 78.2033 119.15 85.5555L118.773 85.7801L118.371 85.6147C106.057 80.331 94.806 75.4964 84.9951 71.2884L84.6645 71.1466L84.5819 70.8038C81.2761 56.6548 78.6079 45.1418 76.8134 37.1513C75.9161 33.156 75.2313 30.0473 74.7945 27.9196C74.3577 25.8038 74.157 24.6808 74.2278 24.6572C74.2986 24.6454 74.6292 25.7329 75.1959 27.8251C75.7626 29.9173 76.5654 33.0024 77.5926 36.9622C79.6232 44.8936 82.4803 56.3712 85.9632 70.4728C85.8333 70.3191 85.7034 70.1655 85.5499 69.9882C95.3845 74.1135 106.683 78.8534 119.044 84.0307C118.784 84.0425 118.536 84.0662 118.265 84.078C130.709 76.6903 144.298 68.6052 158.524 60.1655C158.382 60.4964 158.241 60.8274 158.099 61.1702C154.215 44.9054 150.496 29.3499 147.119 15.1773C147.296 15.3782 147.462 15.591 147.615 15.7683C135.349 10.4965 124.05 5.65012 114.274 1.4539C114.499 1.44208 114.723 1.43026 114.912 1.40662C102.515 8.64066 92.3857 14.5154 85.3256 18.5579C81.7956 20.5792 79.0447 22.1277 77.1676 23.1678C75.2904 24.208 74.275 24.7281 74.2396 24.6572V24.6454Z" fill="#B1B1B1"/>
<path d="M118.713 84.7991C118.465 84.8582 117.143 80.3665 115.207 73.0497C113.271 65.7329 110.72 55.591 108.017 44.3736C107.58 42.5414 107.143 40.7447 106.742 39.0308C106.919 39.2435 107.096 39.4563 107.273 39.6572C97.8398 35.6265 89.5401 31.974 83.6133 29.279C77.6866 26.584 74.133 24.8464 74.2274 24.6336C74.3219 24.4208 78.029 25.7565 84.0856 28.1561C90.1422 30.5438 98.5364 33.9953 107.981 37.9669L108.406 38.1442L108.513 38.5934C108.926 40.3074 109.363 42.104 109.8 43.9244C112.503 55.1419 114.853 65.331 116.458 72.7305C118.064 80.1301 118.938 84.7282 118.69 84.7873L118.713 84.7991Z" fill="#B1B1B1"/>
<path d="M107.639 38.818C107.38 38.3806 116.199 32.6832 127.332 26.0875C138.465 19.4917 147.698 14.5154 147.958 14.9527C148.217 15.3901 139.398 21.0875 128.265 27.6832C117.132 34.2671 107.899 39.2553 107.639 38.818Z" fill="#B1B1B1"/>
<defs>
<linearGradient id="paint0_linear_172_203" x1="192.404" y1="146.217" x2="121.61" y2="188.311" gradientUnits="userSpaceOnUse">
<stop stop-color="#AB7947"/>
<stop offset="1" stop-color="#C2A486"/>
</linearGradient>
</defs>
</svg>
