<svg width="136" height="254" viewBox="0 0 136 254" fill="none" xmlns="http://www.w3.org/2000/svg">
<path d="M-26.5866 151.804C-26.577 151.736 -25.4411 151.832 -23.3154 152.074C-21.1804 152.324 -18.0389 152.717 -14.0108 153.234C-5.95266 154.284 5.64836 155.869 19.8706 157.853L20.2208 157.908L20.389 158.226C25.4424 167.605 31.2765 178.404 37.6078 190.167L37.8162 190.547L37.6317 190.945C31.4029 204.115 24.5629 218.569 17.4152 233.686L17.1115 234.307L16.4369 234.203C0.0786318 231.802 -15.57 229.517 -29.8894 227.409L-30.3244 227.346L-30.5329 226.965C-36.7973 215.12 -42.517 204.292 -47.5092 194.856L-47.6773 194.538L-47.5264 194.219C-41.2131 181.133 -36.0592 170.497 -32.4375 163.152C-30.6267 159.48 -29.2073 156.63 -28.211 154.7C-27.2222 152.779 -26.6731 151.779 -26.6032 151.806C-26.5406 151.841 -26.9663 152.895 -27.8392 154.879C-28.7122 156.863 -30.0157 159.775 -31.7124 163.494C-35.1132 170.942 -40.0887 181.676 -46.2436 194.829C-46.2481 194.628 -46.2527 194.427 -46.2608 194.193C-41.1982 203.579 -35.3825 214.364 -29.0145 226.155C-29.224 226.002 -29.4318 225.864 -29.6505 225.703C-15.3272 227.769 0.325278 230.011 16.6966 232.377C16.3785 232.546 16.0604 232.715 15.7349 232.892C22.9267 217.796 29.8017 203.355 36.0746 190.205C36.0862 190.473 36.0812 190.742 36.0893 190.977C29.8542 179.17 24.1145 168.311 19.1332 158.899C19.3152 159.03 19.5046 159.153 19.659 159.262C5.46898 157.107 -6.10338 155.317 -14.1364 154.029C-18.1528 153.385 -21.266 152.862 -23.3893 152.485C-25.5034 152.116 -26.6201 151.883 -26.6032 151.806L-26.5866 151.804Z" fill="#B1B1B1"/>
<path d="M-29.7452 226.553C-29.9752 226.444 -28.1834 222.118 -25.0951 215.208C-22.0068 208.298 -17.6221 198.804 -12.6813 188.377C-11.8706 186.676 -11.0822 185.004 -10.3256 183.427C-10.3214 183.704 -10.3172 183.981 -10.3056 184.248C-15.1152 175.187 -19.2802 167.133 -22.1999 161.313C-25.1195 155.494 -26.7938 151.91 -26.5867 151.804C-26.3795 151.698 -24.3335 155.065 -21.1272 160.736C-17.9134 166.398 -13.5487 174.356 -8.69283 183.378L-8.47342 183.783L-8.67282 184.199C-9.42764 185.792 -10.2161 187.465 -11.0193 189.156C-15.9601 199.583 -20.5307 208.988 -23.9282 215.755C-27.3257 222.521 -29.5335 226.648 -29.7635 226.538L-29.7452 226.553Z" fill="#B1B1B1"/>
<path d="M-9.4865 183.816C-9.41396 183.313 1.02723 184.417 13.8334 186.276C26.6395 188.136 36.9494 190.061 36.8769 190.564C36.8044 191.068 26.3632 189.963 13.557 188.104C0.758321 186.236 -9.55903 184.319 -9.4865 183.816Z" fill="#B1B1B1"/>
<g opacity="0.87">
<path d="M117.095 58.7786L97.1662 102.405L49.8079 95.7799L69.7372 52.1538L117.095 58.7786Z" fill="#AB7947"/>
<path d="M49.8079 95.78L31.8393 63.2647L51.7686 19.6387L69.7371 52.154L49.8079 95.78Z" fill="#AB7947"/>
<path d="M69.737 52.1539L51.7684 19.6386L99.1267 26.2634L117.095 58.7787L69.737 52.1539Z" fill="#C2A486"/>
<path d="M117.095 58.7787L99.1267 26.2634L51.7684 19.6386L31.8392 63.2646L49.8279 95.8114L97.1661 102.405L117.095 58.7787Z" fill="url(#paint0_linear_216_136)"/>
</g>
<path d="M20.8207 158.587C20.5906 158.477 22.0413 154.894 24.5667 149.17C27.1014 143.454 30.7033 135.607 34.796 127.001C38.8868 118.379 42.6839 110.628 45.5111 105.057C48.3383 99.4858 50.2124 96.0921 50.4424 96.2018C50.6725 96.3115 49.2218 99.895 46.6964 105.619C44.1617 111.335 40.5598 119.182 36.4671 127.788C32.3837 136.401 28.5867 144.151 25.752 149.732C22.9248 155.303 21.0507 158.697 20.8207 158.587Z" fill="#B1B1B1"/>
<defs>
<linearGradient id="paint0_linear_216_136" x1="128.37" y1="68.7131" x2="46.8432" y2="57.0111" gradientUnits="userSpaceOnUse">
<stop stop-color="#AB7947"/>
<stop offset="1" stop-color="#C2A486"/>
</linearGradient>
</defs>
</svg>
