<svg width="65" height="30" viewBox="0 0 65 30" fill="none" xmlns="http://www.w3.org/2000/svg">
<path d="M41.6228 21.6324C41.8105 21.7539 41.9997 21.855 42.184 21.932C42.5285 22.2684 42.3725 22.8408 42.2863 23.0768C42.0583 23.7051 41.5656 24.1736 41.2783 24.1736C41.2437 24.1736 41.2133 24.1666 41.1914 24.1545L35.4394 20.7292L35.4379 20.7285L35.0334 21.4055C35.2247 21.52 39.4336 24.0443 40.5963 24.7227C40.5907 25.0633 40.5307 25.7594 40.1551 26.1644C39.8191 26.5276 39.2713 26.5785 38.5215 26.3347C38.3761 26.2873 38.1813 26.2025 37.9426 26.0838C37.6165 25.7686 36.6225 25.122 33.5714 23.3546L33.1493 24.0203C33.2573 24.0945 35.6998 25.7884 37.3165 26.6477C37.2988 27.17 37.1837 27.5516 36.9797 27.7601C36.8308 27.9127 36.6204 27.9862 36.3387 27.9862C35.702 27.9862 34.8951 27.6187 34.2463 27.2576C34.3423 26.4308 34.1213 25.7319 33.822 25.2937C33.5177 24.8485 33.0871 24.5934 32.641 24.5934C32.3946 24.5934 32.0472 24.6697 31.6971 24.9969C31.6364 24.7001 31.5326 24.428 31.3773 24.2012C31.1048 23.8026 30.7201 23.5843 30.293 23.5843C30.0671 23.5843 29.743 23.6542 29.3887 23.9263C29.3541 23.5673 29.2672 23.2422 29.0936 22.9949C28.8493 22.6444 28.4878 22.4507 28.0777 22.4507C27.7035 22.4507 27.2609 22.6295 26.8402 23.0486C26.7724 22.7617 26.6637 22.4868 26.5055 22.243C26.1702 21.725 25.6803 21.4275 25.1628 21.4275C24.7873 21.4275 24.1569 21.5942 23.5561 22.5094C21.6048 21.9193 19.0479 21.1384 17.984 20.8126L20.733 10.013C22.0658 10.0236 26.0495 10.0618 28.6065 10.1381C28.0777 11.1056 27.3492 12.7296 27.8207 13.444C27.9704 13.6694 28.2252 13.7528 28.5274 13.7528C29.0879 13.7528 29.8094 13.4645 30.3113 13.2645C30.408 13.2271 30.4942 13.1924 30.5669 13.1649C31.0448 12.9847 31.9774 12.3267 32.6028 11.7324L33.097 11.5699C35.7704 13.1974 39.375 15.7704 41.406 17.2213C41.7329 17.4545 42.0174 17.658 42.2666 17.8347L43.5627 18.8509C43.8564 19.195 44.0124 19.5667 44.0633 19.9173L43.4787 21.2656C43.3714 21.3108 43.2465 21.3405 43.0975 21.3405C42.9394 21.3405 42.7671 21.308 42.5885 21.243C41.5289 20.4508 36.9564 17.9166 36.7595 17.8078L36.3712 18.4947C36.4093 18.5166 40.1516 20.6805 41.6228 21.6324ZM15.9869 22.9369C15.8732 23.3828 15.473 23.6945 15.0148 23.6945C14.9315 23.6945 14.8482 23.6832 14.7804 23.6669L3.07224 20.4006C2.53501 20.2635 2.20959 19.7144 2.34654 19.1774L6.39941 3.25218C6.51307 2.80626 6.91262 2.4953 7.37219 2.4953C7.4555 2.4953 7.5388 2.50591 7.60587 2.52216L19.3141 5.78847C19.8513 5.92557 20.1767 6.47466 20.0398 7.01175L15.9869 22.9369ZM64.2449 16.1966L57.7982 1.08263C57.4283 0.212702 56.423 -0.191525 55.554 0.180193L44.5941 5.03019C43.7258 5.40121 43.3227 6.40682 43.6933 7.27746L44.2023 8.47034C42.604 9.1 40.7156 9.79327 39.764 9.96216C38.8745 8.73182 36.8675 8.10428 35.9646 8.09862H35.9229C34.9353 8.09862 32.8393 8.32406 31.4317 8.54313V8.54243C31.2912 8.56645 31.1443 8.58623 30.9954 8.60602C30.2993 8.70142 29.5171 8.81168 29.083 9.36431C26.6524 9.28092 22.5374 9.2385 20.9335 9.22508L21.4079 7.36085C21.7361 6.06832 20.9533 4.74822 19.6776 4.42385L7.96942 1.15684C7.77388 1.10666 7.57268 1.08193 7.37219 1.08193C6.26668 1.08193 5.30446 1.83101 5.03125 2.90306L0.978418 18.829C0.649445 20.1215 1.43305 21.4409 2.70799 21.766L14.4161 25.0323C14.6124 25.0824 14.8143 25.1079 15.0148 25.1079C16.1189 25.1079 17.0811 24.3581 17.3543 23.286L17.7899 21.578C18.8453 21.9009 21.2653 22.6408 23.1777 23.2196C23.1135 23.3624 23.0478 23.5009 22.985 23.6669C22.0298 26.199 23.3619 27.0244 23.7933 27.2166C24.0277 27.3219 24.2599 27.3749 24.4837 27.3749C24.9122 27.3749 25.2567 27.1898 25.5384 26.9198C25.6245 27.365 25.8568 27.7481 26.3509 27.9961C26.6559 28.1502 26.9482 28.2279 27.2186 28.2279C27.5666 28.2279 27.8391 28.1014 28.065 27.9148C28.214 28.4392 28.4942 28.8455 28.8493 29.0286C29.0244 29.119 29.2065 29.1643 29.3929 29.1643C29.8885 29.1643 30.3085 28.8491 30.6424 28.4554C30.6961 28.8074 30.7977 29.1296 30.9672 29.384C31.1768 29.6985 31.455 29.8914 31.7719 29.9402C31.8778 29.9565 31.9774 29.9642 32.0741 29.9642C33.3286 29.9642 33.8136 28.7049 34.0197 28.1685C34.0345 28.129 34.043 28.0922 34.0571 28.0526C34.7991 28.4498 35.6172 28.7756 36.3387 28.7756C36.8364 28.7756 37.2416 28.6201 37.5431 28.3127C37.8403 28.0095 38.0182 27.5813 38.081 27.0124C38.1502 27.0407 38.2158 27.0654 38.2773 27.0852C39.3425 27.4315 40.1833 27.2965 40.734 26.7007C41.2084 26.187 41.3425 25.4457 41.3764 24.9581C42.0993 24.893 42.7473 24.1157 43.0276 23.3468C43.0671 23.2359 43.0996 23.1256 43.1243 23.0175L49.3141 20.4543L50.14 22.3907C50.5107 23.2613 51.5152 23.6648 52.3843 23.2931L63.3441 18.4431C64.2124 18.0721 64.6163 17.0672 64.2449 16.1966Z" fill="url(#paint0_linear_172_234)"/>
<defs>
<linearGradient id="paint0_linear_172_234" x1="32.6431" y1="29.9642" x2="3.11111" y2="4.28234" gradientUnits="userSpaceOnUse">
<stop stop-color="#DBB086"/>
<stop offset="0.484375" stop-color="#A87E53"/>
<stop offset="1" stop-color="#AB7947"/>
</linearGradient>
</defs>
</svg>
